<svg xmlns="http://www.w3.org/2000/svg" enable-background="new 0 0 48 48" viewBox="0 0 48 48" id="customer-service"><path d="M24,0.5C11,0.5,0.5,11,0.5,24v1v2.3v0v7.3c0,1.6,1.3,2.9,2.9,2.9h3.7c0.6,1.1,1.3,1.7,2.1,1.7c1.6,0,3.5-1.3,3.5-7.7
		c0-3.6-0.7-9.7-3.5-9.7c-1,0-1.9,0.9-2.5,2.6H3.4c-0.2,0-0.4,0-0.5,0.1l0.1-0.3C4.8,14.1,13.7,6.7,24,6.7
		c10.3,0,19.2,7.3,21.1,17.5l0.1,0.3c-0.2,0-0.4-0.1-0.5-0.1h-3.3c-0.6-1.7-1.4-2.6-2.5-2.6c-2.7,0-3.5,6.1-3.5,9.7
		c0,6.3,1.9,7.7,3.5,7.7c0.8,0,1.6-0.6,2.1-1.7h1.5v2.2c0,1.9-1.6,3.5-3.5,3.5H27.2c-0.4-1.3-1.7-2.3-3.2-2.3
		c-1.8,0-3.3,1.5-3.3,3.3s1.5,3.3,3.3,3.3c1.5,0,2.7-1,3.2-2.3h11.7c3,0,5.5-2.5,5.5-5.5v-2.2h0.3c1.6,0,2.9-1.3,2.9-2.9v-7.3v0V25
		v-1C47.5,11,37,0.5,24,0.5z M9.2,23.9c0.5,0.5,1.5,3.1,1.5,7.6c0,4.2-0.9,5.7-1.4,5.7c-0.1,0-0.3-0.3-0.6-1.1l-0.2-0.6
		c-0.4-1.1-0.7-1.7-0.7-4c0-0.6,0-1.1,0.1-1.7c0.1-1,0.2-2,0.3-2.9c0.1-0.4,0.2-0.9,0.3-1.3C8.7,24.6,9,24.1,9.2,23.9z M6.2,26.4
		C6.2,26.5,6.2,26.5,6.2,26.4c0,0.2,0,0.3-0.1,0.4C6,27.2,6,27.5,5.9,27.9c0,0.2,0,0.3-0.1,0.5c0,0.4-0.1,0.7-0.1,1.1
		c0,0.2,0,0.3,0,0.5c0,0.5,0,1,0,1.6c0,0.3,0,0.6,0,0.8c0,0.1,0,0.2,0,0.2c0,0.2,0,0.3,0,0.5c0,0.1,0,0.1,0,0.2c0,0.2,0,0.3,0.1,0.5
		c0,0,0,0.1,0,0.1c0,0.2,0.1,0.4,0.1,0.5c0,0,0,0.1,0,0.1c0,0.1,0.1,0.2,0.1,0.3c0,0,0,0.1,0,0.1c0,0.1,0.1,0.2,0.1,0.3
		c0,0,0,0.1,0,0.1c0,0,0,0,0,0H3.4c-0.5,0-0.9-0.4-0.9-0.9v-7.3v0c0-0.5,0.4-0.9,0.9-0.9H6.2z M24,45.5c-0.7,0-1.3-0.6-1.3-1.3
		s0.6-1.3,1.3-1.3c0.7,0,1.3,0.6,1.3,1.3S24.7,45.5,24,45.5z M37.3,31.5c0-4.6,1-7.1,1.5-7.6c0.2,0.2,0.5,0.7,0.8,1.8
		c0.4,1.6,0.7,3.7,0.7,5.8c0,2.3-0.2,2.9-0.7,4l-0.2,0.6c-0.3,0.8-0.6,1-0.5,1.1C38.2,37.2,37.3,35.7,37.3,31.5z M45.5,34.6
		c0,0.5-0.4,0.9-0.9,0.9h-2.9c0,0,0,0,0,0c0,0,0-0.1,0-0.1c0-0.1,0.1-0.2,0.1-0.3c0,0,0-0.1,0-0.1c0-0.1,0.1-0.2,0.1-0.3
		c0,0,0-0.1,0-0.1c0-0.2,0.1-0.3,0.1-0.5c0,0,0-0.1,0-0.1c0-0.1,0-0.3,0.1-0.5c0-0.1,0-0.1,0-0.2c0-0.2,0-0.3,0-0.5
		c0-0.1,0-0.2,0-0.2c0-0.3,0-0.5,0-0.8c0-0.5,0-1.1,0-1.6c0-0.2,0-0.3,0-0.5c0-0.4-0.1-0.7-0.1-1.1c0-0.2,0-0.3-0.1-0.5
		c0-0.4-0.1-0.8-0.2-1.1c0-0.1,0-0.2,0-0.3c0,0,0-0.1,0-0.1h2.8c0.5,0,0.9,0.4,0.9,0.9v0V34.6z M24,4.7c-8.2,0-15.5,4.2-19.7,10.7
		C7.6,7.8,15.2,2.5,24,2.5c8.8,0,16.4,5.3,19.7,12.9C39.5,8.9,32.2,4.7,24,4.7z"></path></svg>