<svg xmlns="http://www.w3.org/2000/svg" width="512" height="512" fill="none" viewBox="0 0 512 512" id="guarantee"><path fill="#fff" d="M321.24 273.029C321.33 244.719 321.67 166.259 319.18 152.149C344.52 133.459 368.84 100.889 394.19 82.1992C396.7 124.929 396.55 211.649 398.92 256.589L321.24 273.029Z"></path><path fill="#fff" d="M321.24 273.03L315.4 274.27L302.93 333.7C249.81 336.62 145.03 340.64 91.9104 343.56C86.5004 283.85 81.0804 217.75 75.6504 157.65C76.9704 156.37 78.3504 155.06 79.8004 153.74C155.74 153.04 243.51 152.87 319.18 152.15C321.67 166.26 321.33 244.72 321.24 273.03Z"></path><path fill="#fff" d="M394.19 82.1992C368.84 100.889 344.52 133.459 319.18 152.149C243.51 152.869 155.74 153.039 79.7998 153.739C103.49 132.059 143.85 105.049 163.22 84.7492C242.93 86.4492 314.52 85.3792 394.19 82.1992Z"></path><path fill="#fff" d="M282.38 85.25C267.01 105.93 230.87 152.78 229.59 152.78C208.47 152.91 187.15 153.02 166.04 153.14C187.14 131.53 207.4 107.36 228.44 85.54C246.55 85.59 264.46 85.49 282.38 85.25Z"></path><path fill="#fff" d="M232.68 217.739C222.21 206.469 208.96 197.379 194.2 191.339 185.42 201.559 176.63 211.779 167.84 221.999 167.09 199.199 166.34 176.399 165.59 153.599 165.74 153.449 165.89 153.299 166.04 153.139 187.15 153.019 208.47 152.909 229.59 152.779 231.6 172.899 230.28 198.209 232.68 217.739zM341.4 200.24C365.07 220.94 403.03 233.64 434.47 233.36 434.44 269.7 457.49 388.09 360.21 429.57L356.04 429.8C330.11 426.54 306.28 412.02 289.26 392.19 272.24 372.36 261.67 347.54 256.28 321.97 250.89 296.4 250.47 270 252.05 243.92 284.76 239.38 315.55 222.21 336.59 196.77L341.4 200.24z"></path><path fill="#fff" d="M356.05 412.729C269.11 394.609 267.43 278.469 267.77 258.819C293.73 251.349 317.83 237.519 337.35 218.859C358.2 232.669 395.06 246.899 420.02 248.359C432.87 387.559 356.05 412.729 356.05 412.729Z"></path><path fill="#fff" d="M395.12 271.68C378.42 296.3 361.72 320.91 345.02 345.53C330.99 335.2 315.97 322.78 301.94 312.45C309.23 306.08 320.38 296.37 327.68 290C333.89 296.16 340.11 302.31 346.33 308.46C355.47 293.64 375.09 273.03 395.12 271.68Z"></path><path fill="#000" d="M335 195.17C318.71 214.8 296.73 229.47 272.38 237.06C265.54 239.19 258.54 240.76 251.45 241.75C250.45 241.89 249.85 243.02 249.8 243.92C248.77 261.16 248.59 278.48 250.15 295.69C251.62 311.97 254.62 328.16 259.85 343.67C264.69 358.02 271.35 371.83 280.16 384.18C288.67 396.11 299.09 406.57 311.23 414.81C323.03 422.82 336.46 428.66 350.52 431.22C352.36 431.55 354.2 431.82 356.05 432.06C357.26 432.21 358.3 430.92 358.3 429.81C358.3 428.47 357.26 427.72 356.05 427.56C342.31 425.8 329.1 420.71 317.36 413.43C305.48 406.06 295.03 396.42 286.55 385.31C277.59 373.57 270.65 360.34 265.59 346.48C260.25 331.82 256.92 316.47 255.18 300.98C253.29 284.13 253.16 267.13 253.96 250.21C254.06 248.11 254.17 246.02 254.3 243.92C253.75 244.64 253.2 245.37 252.65 246.09C278.54 242.46 303.14 231.03 322.9 213.96C328.42 209.19 333.53 203.97 338.19 198.36C338.97 197.43 339.11 196.09 338.19 195.18C337.39 194.37 335.78 194.23 335 195.17Z"></path><path fill="#000" d="M339.81 201.839C349.74 210.489 361.21 217.259 373.28 222.479C385.8 227.899 398.99 231.809 412.47 233.899C419.75 235.029 427.1 235.669 434.47 235.619C433.72 234.869 432.97 234.119 432.22 233.369C432.22 243.159 433.21 252.959 433.77 262.729C434.54 276.369 434.9 290.049 434.22 303.699C433.45 319.089 431.47 334.019 427.25 348.909C422.92 364.209 416.28 378.689 406.63 391.459C395.98 405.549 381.72 416.719 365.85 424.529C363.62 425.629 361.36 426.659 359.08 427.639C357.96 428.119 357.71 429.759 358.27 430.719C358.95 431.879 360.23 432.009 361.35 431.529C378.46 424.209 394.07 413.409 406.16 399.189C416.86 386.609 424.6 371.849 429.74 356.189C434.64 341.249 437.19 325.609 438.34 309.949C439.38 295.819 439.22 281.639 438.52 267.489C438 257.029 437.01 246.579 436.76 236.109C436.74 235.189 436.72 234.279 436.72 233.359C436.72 232.149 435.69 231.099 434.47 231.109C421.71 231.199 408.99 229.269 396.69 225.929C383.92 222.469 371.54 217.479 360.1 210.799C354.05 207.259 348.27 203.249 342.98 198.639C340.82 196.759 337.62 199.929 339.81 201.839Z"></path><path fill="#000" d="M264.1 262.159C285.9 256.479 306.57 246.439 324.49 232.769C329.53 228.919 334.36 224.829 338.95 220.449C338.04 220.569 337.13 220.679 336.22 220.799C352.69 231.669 371.42 239.139 390.86 242.559C396.43 243.539 402.05 244.199 407.69 244.539C410.58 244.709 410.57 240.209 407.69 240.039C388.58 238.899 369.7 233.779 352.62 225.129C347.76 222.669 343.04 219.919 338.5 216.909C337.66 216.349 336.47 216.599 335.77 217.259C319.94 232.349 301.09 244.309 280.65 252.129C274.85 254.349 268.92 256.239 262.91 257.809C260.11 258.549 261.29 262.889 264.1 262.159Z"></path><path fill="#000" d="M265.71 263.349C265.48 267.709 265.58 272.099 265.73 276.459C266.11 287.299 267.23 298.119 269.07 308.799C271.44 322.599 275.1 336.229 280.51 349.159C286.41 363.259 294.39 376.559 305.09 387.559C316.82 399.619 331.55 408.329 347.71 412.989C349.88 413.619 352.07 414.169 354.27 414.649C355.07 414.829 355.91 415.099 356.72 414.869C357.04 414.779 357.35 414.639 357.66 414.519C359.39 413.829 361.09 413.049 362.75 412.199C368.99 408.979 374.76 404.799 380.01 400.149C388.23 392.869 395.2 384.179 400.89 374.799C408.91 361.569 414.42 346.869 417.98 331.839C422.94 310.889 424.29 289.169 423.52 267.709C423.29 261.249 422.86 254.799 422.27 248.359C422.16 247.149 421.32 246.109 420.02 246.109C418.89 246.109 417.66 247.139 417.77 248.359C419.87 271.209 420.01 294.449 416.32 317.149C413.71 333.229 409.14 349.179 401.97 363.519C399.14 369.179 395.9 374.639 392.23 379.789C391.81 380.379 391.39 380.959 390.96 381.539C390.76 381.809 390.56 382.079 390.35 382.349C390.24 382.499 390.13 382.639 390.02 382.789C389.95 382.889 389.87 382.979 389.8 383.079C389.95 382.889 389.97 382.859 389.87 382.979C389.02 384.079 388.15 385.159 387.25 386.219C385.62 388.169 383.91 390.059 382.14 391.879C379.06 395.039 375.77 397.969 372.31 400.709C371.98 400.969 372.68 400.429 372.12 400.859C371.92 401.009 371.72 401.159 371.53 401.309C371.14 401.599 370.75 401.889 370.36 402.169C369.65 402.689 368.93 403.189 368.2 403.689C366.9 404.569 365.57 405.419 364.22 406.219C362.21 407.419 360.14 408.529 358.02 409.499C357.66 409.659 357.31 409.819 356.95 409.979C356.37 410.239 357.56 409.739 357.01 409.949C356.87 410.009 356.73 410.059 356.59 410.119C356.27 410.249 355.89 410.339 355.58 410.499C355.54 410.519 355.49 410.529 355.45 410.549C355.85 410.549 356.25 410.549 356.65 410.549C340.21 407.099 324.88 399.709 312.54 388.489C301.38 378.339 293.05 365.909 286.72 352.169C283.8 345.839 281.27 339.019 279.16 332.069C277.18 325.569 275.58 318.949 274.28 312.279C273.67 309.149 273.13 305.999 272.66 302.849C272.55 302.139 272.45 301.429 272.35 300.719C272.3 300.339 272.24 299.959 272.19 299.569C272.1 298.929 272.25 300.049 272.17 299.409C272.14 299.159 272.1 298.909 272.07 298.659C271.89 297.249 271.72 295.839 271.56 294.429C271 289.389 270.6 284.339 270.36 279.279C270.11 274.029 270.24 268.799 270.21 263.559C270.21 263.489 270.22 263.409 270.22 263.339C270.37 260.449 265.87 260.459 265.71 263.349Z"></path><path fill="#000" d="M301.79 316.491C315.82 326.821 329.85 337.141 343.89 347.471C344.91 348.221 346.34 347.581 346.97 346.661C359.98 327.481 373 308.291 386.01 289.111C389.7 283.681 393.38 278.251 397.07 272.811C398.7 270.411 394.8 268.151 393.18 270.541C380.17 289.721 367.15 308.911 354.14 328.091C350.45 333.521 346.77 338.951 343.08 344.391C344.11 344.121 345.13 343.851 346.16 343.581C332.13 333.251 318.1 322.931 304.06 312.601C303.08 311.881 301.55 312.441 300.98 313.411C300.32 314.551 300.81 315.771 301.79 316.491Z"></path><path fill="#000" d="M307.38 310.699C314.68 304.329 321.97 297.959 329.27 291.589 328.21 291.589 327.15 291.589 326.09 291.589 332.31 297.739 338.52 303.899 344.74 310.049 345.79 311.089 347.51 310.829 348.27 309.589 357.28 295.059 370.48 283.429 385.97 276.199 387.07 275.689 387.35 274.099 386.78 273.119 386.12 271.989 384.81 271.799 383.7 272.309 371.22 278.129 360.06 286.839 351.37 297.529 348.84 300.639 346.5 303.899 344.39 307.309 345.57 307.159 346.75 307.009 347.92 306.849 341.7 300.699 335.49 294.539 329.27 288.389 328.36 287.489 327.01 287.589 326.09 288.389 318.79 294.759 311.5 301.129 304.2 307.499 302.01 309.429 305.21 312.599 307.38 310.699zM72.9102 158.93C75.0902 182.98 77.2802 207.04 79.4602 231.09 81.6402 255.06 83.8102 279.03 85.9902 303 87.2202 316.52 88.4402 330.04 89.6702 343.56 89.7802 344.72 90.6202 345.88 91.9202 345.81 112.67 344.67 133.42 343.53 154.17 342.39 174.84 341.26 195.5 340.12 216.17 338.99 227.87 338.35 239.58 337.71 251.28 337.06 254.16 336.9 254.18 332.4 251.28 332.56 230.53 333.7 209.78 334.84 189.03 335.98 168.36 337.11 147.7 338.25 127.03 339.38 115.33 340.02 103.62 340.66 91.9202 341.31 92.6702 342.06 93.4202 342.81 94.1702 343.56 91.9902 319.51 89.8002 295.45 87.6202 271.4 85.4402 247.43 83.2702 223.46 81.0902 199.49 79.8602 185.97 78.6402 172.45 77.4102 158.93 77.3002 157.72 76.4502 156.68 75.1602 156.68 74.0302 156.68 72.8002 157.72 72.9102 158.93zM89.5304 156.581C119.48 156.301 149.44 156.01 179.39 155.73 209.18 155.45 238.96 155.171 268.75 154.881 285.56 154.721 302.36 154.56 319.17 154.4 318.45 153.85 317.72 153.301 317 152.751 318.47 161.201 318.8 169.821 318.93 178.381 319.06 187.581 318.86 196.781 318.86 205.971 318.86 208.871 323.36 208.871 323.36 205.971 323.37 187.881 324.47 169.461 321.35 151.551 321.18 150.601 320.1 149.89 319.18 149.9 289.23 150.18 259.27 150.471 229.32 150.751 199.53 151.031 169.75 151.311 139.96 151.601 123.15 151.761 106.35 151.921 89.5404 152.081 86.6404 152.111 86.6304 156.611 89.5304 156.581zM324.57 148.569C343.74 134.399 360.85 117.789 379.09 102.499 384.31 98.1191 389.63 93.8691 395.11 89.8191 393.98 89.1691 392.85 88.5191 391.72 87.8791 392.72 104.979 393.73 122.079 394.73 139.189 395.73 156.289 396.74 173.389 397.74 190.499 398.3 200.129 398.87 209.759 399.43 219.389 399.6 222.269 404.1 222.289 403.93 219.389 402.93 202.289 401.92 185.189 400.92 168.079 399.92 150.979 398.91 133.879 397.91 116.769 397.35 107.139 396.78 97.5091 396.22 87.8791 396.13 86.3491 394.31 84.8491 392.83 85.9391 373.66 100.109 356.55 116.719 338.31 132.009 333.09 136.389 327.77 140.639 322.29 144.689 321.31 145.409 320.82 146.639 321.48 147.769 322.06 148.729 323.59 149.299 324.57 148.569z"></path><path fill="#000" d="M385.73 79.9496C362.6 80.8696 339.47 81.6796 316.33 82.2596 294.4 82.8096 272.46 83.1596 250.52 83.2696 227.99 83.3796 205.45 83.2296 182.92 82.8696 176.86 82.7696 170.8 82.6596 164.74 82.5296 163.22 82.4996 162.29 82.4796 161.19 83.6196 160.39 84.4496 159.57 85.2796 158.75 86.0896 157.15 87.6696 155.51 89.2096 153.85 90.7196 146.65 97.2596 139 103.29 131.28 109.2 115.52 121.27 99.0898 132.73 84.6998 146.46 83.1198 147.97 81.5698 149.51 80.0598 151.09 78.0598 153.18 81.2298 156.37 83.2398 154.27 92.6498 144.45 103.43 136 114.21 127.76 125.67 119 137.34 110.51 148.45 101.31 154.15 96.5896 159.7 91.6796 164.82 86.3396 164.29 86.5596 163.76 86.7796 163.23 86.9996 192.51 87.6196 221.79 87.9096 251.08 87.7596 279.16 87.6196 307.24 87.0696 335.31 86.2296 352.12 85.7196 368.93 85.1196 385.74 84.4396 388.61 84.3296 388.63 79.8296 385.73 79.9496zM151.78 278.499C172.75 277.549 193.73 276.589 214.7 275.639 220.69 275.369 226.68 275.099 232.68 274.819 235.56 274.689 235.58 270.189 232.68 270.319 211.71 271.269 190.73 272.229 169.76 273.179 163.77 273.449 157.78 273.719 151.78 273.999 148.9 274.129 148.88 278.629 151.78 278.499zM131.37 305.69C161.29 304.06 191.2 302.43 221.12 300.8 229.6 300.34 238.07 299.88 246.55 299.41 249.43 299.25 249.45 294.75 246.55 294.91 216.63 296.54 186.72 298.17 156.8 299.8 148.32 300.26 139.85 300.72 131.37 301.19 128.49 301.35 128.48 305.85 131.37 305.69z"></path><path fill="#000" d="M226.93 156.52C229.4 176.85 227.96 197.41 230.43 217.74C231.71 217.21 232.99 216.68 234.27 216.15C223.27 204.36 209.68 195.3 194.8 189.17C194.12 188.89 193.08 189.21 192.61 189.75C183.82 199.97 175.03 210.19 166.24 220.41C167.52 220.94 168.8 221.47 170.08 222C169.5 204.28 168.92 186.55 168.33 168.83C168.16 163.75 168 158.68 167.83 153.6C167.61 154.13 167.39 154.66 167.17 155.19C184.1 137.88 200.15 119.74 216.7 102.06C221.4 97.04 226.15 92.05 230.97 87.13C233 85.06 229.82 81.87 227.79 83.95C213.17 98.9 199.2 114.46 185.01 129.82C181.45 133.68 177.87 137.52 174.26 141.33C172.46 143.23 170.65 145.13 168.84 147.02C167.92 147.97 167.01 148.92 166.09 149.87C165.24 150.74 163.76 151.79 163.43 153C163.1 154.22 163.42 155.84 163.46 157.09C163.51 158.5 163.55 159.92 163.6 161.33C163.69 163.99 163.77 166.66 163.86 169.32C164.04 174.73 164.22 180.14 164.39 185.55C164.79 197.7 165.19 209.85 165.59 222C165.65 223.81 168.09 225.14 169.43 223.59C178.22 213.37 187.01 203.15 195.8 192.93C195.07 193.12 194.34 193.32 193.61 193.51C207.76 199.33 220.65 208.14 231.09 219.33C232.32 220.65 235.17 219.72 234.93 217.74C232.46 197.41 233.9 176.85 231.43 156.52C231.28 155.31 230.5 154.27 229.18 154.27C228.08 154.27 226.78 155.31 226.93 156.52Z"></path><path fill="#000" d="M279.86 84.2004C267.36 100.88 254.85 117.57 242.35 134.25C238.81 138.97 235.28 143.69 231.74 148.41C231.01 149.38 231.58 150.92 232.55 151.49C233.7 152.16 234.9 151.66 235.63 150.68C248.13 134 260.64 117.31 273.14 100.63C276.68 95.9104 280.21 91.1904 283.75 86.4704C284.48 85.5004 283.91 83.9604 282.94 83.3904C281.78 82.7204 280.59 83.2204 279.86 84.2004Z"></path></svg>